{
  "accessors": [
    {
      "bufferView": 2,
      "componentType": 5126,
      "count": 586,
      "max": [
        1.0,
        0.9961885213851929,
        1.8713476657867432
      ],
      "min": [
        -1.0,
        -0.9961885213851929,
        -1.1494534015655518
      ],
      "type": "VEC3"
    },
    {
      "bufferView": 2,
      "byteOffset": 7032,
      "componentType": 5126,
      "count": 586,
      "max": [
        0.9999991655349731,
        0.9999991655349731,
        1.0
      ],
      "min": [
        -0.9999991655349731,
        -0.9999992251396179,
        -1.0
      ],
      "type": "VEC3"
    },
    {
      "bufferView": 1,
      "componentType": 5126,
      "count": 586,
      "max": [
        0.9937578439712524,
        1.0
      ],
      "min": [
        0.006198950577527285,
        0.010914767161011696
      ],
      "type": "VEC2"
    },
    {
      "bufferView": 0,
      "componentType": 5125,
      "count": 1758,
      "type": "SCALAR"
    },
    {
      "bufferView": 2,
      "byteOffset": 14064,
      "componentType": 5126,
      "count": 366,
      "max": [
        0.9409877061843872,
        0.9961885213851929,
        1.3029941320419312
      ],
      "min": [
        -0.9409877061843872,
        -0.9961885213851929,
        -1.000000238418579
      ],
      "type": "VEC3"
    },
    {
      "bufferView": 2,
      "byteOffset": 18456,
      "componentType": 5126,
      "count": 366,
      "max": [
        1.0,
        0.9999961853027344,
        0.9973639249801636
      ],
      "min": [
        -1.0,
        -0.9999961256980896,
        -0.009968781843781471
      ],
      "type": "VEC3"
    },
    {
      "bufferView": 1,
      "byteOffset": 4688,
      "componentType": 5126,
      "count": 366,
      "max": [
        0.5682651400566101,
        0.9661571383476257
      ],
      "min": [
        0.03164653852581978,
        0.03253089636564255
      ],
      "type": "VEC2"
    },
    {
      "bufferView": 0,
      "byteOffset": 7032,
      "componentType": 5125,
      "count": 1050,
      "type": "SCALAR"
    },
    {
      "bufferView": 2,
      "byteOffset": 22848,
      "componentType": 5126,
      "count": 128,
      "max": [
        0.26733696460723877,
        0.2673371434211731,
        0.2541099786758423
      ],
      "min": [
        -0.26733729243278503,
        -0.2673371434211731,
        -0.2541072368621826
      ],
      "type": "VEC3"
    },
    {
      "bufferView": 2,
      "byteOffset": 24384,
      "componentType": 5126,
      "count": 128,
      "max": [
        0.999702513217926,
        0.9997025728225708,
        1.0
      ],
      "min": [
        -0.9997025728225708,
        -0.9997025728225708,
        -1.0
      ],
      "type": "VEC3"
    },
    {
      "bufferView": 1,
      "byteOffset": 7616,
      "componentType": 5126,
      "count": 128,
      "max": [
        0.3150452971458435,
        0.31504520773887634
      ],
      "min": [
        0.1849549263715744,
        0.1849547028541565
      ],
      "type": "VEC2"
    },
    {
      "bufferView": 0,
      "byteOffset": 11232,
      "componentType": 5125,
      "count": 372,
      "type": "SCALAR"
    },
    {
      "bufferView": 2,
      "byteOffset": 25920,
      "componentType": 5126,
      "count": 24,
      "max": [
        1.418405294418335,
        1.0,
        1.0
      ],
      "min": [
        -1.0,
        -1.0,
        -1.0
      ],
      "type": "VEC3"
    },
    {
      "bufferView": 2,
      "byteOffset": 26208,
      "componentType": 5126,
      "count": 24,
      "max": [
        0.97881019115448,
        1.0,
        1.0
      ],
      "min": [
        -0.97881019115448,
        -1.0,
        -1.0
      ],
      "type": "VEC3"
    },
    {
      "bufferView": 1,
      "byteOffset": 8640,
      "componentType": 5126,
      "count": 24,
      "max": [
        0.875,
        1.0
      ],
      "min": [
        0.125,
        0.0
      ],
      "type": "VEC2"
    },
    {
      "bufferView": 0,
      "byteOffset": 12720,
      "componentType": 5125,
      "count": 36,
      "type": "SCALAR"
    },
    {
      "bufferView": 2,
      "byteOffset": 26496,
      "componentType": 5126,
      "count": 24,
      "max": [
        1.418405294418335,
        1.0,
        1.0
      ],
      "min": [
        -1.0,
        -1.0,
        -1.0
      ],
      "type": "VEC3"
    },
    {
      "bufferView": 2,
      "byteOffset": 26784,
      "componentType": 5126,
      "count": 24,
      "max": [
        0.97881019115448,
        1.0,
        1.0
      ],
      "min": [
        -0.97881019115448,
        -1.0,
        -1.0
      ],
      "type": "VEC3"
    },
    {
      "bufferView": 1,
      "byteOffset": 8832,
      "componentType": 5126,
      "count": 24,
      "max": [
        0.875,
        1.0
      ],
      "min": [
        0.125,
        0.0
      ],
      "type": "VEC2"
    },
    {
      "bufferView": 0,
      "byteOffset": 12864,
      "componentType": 5125,
      "count": 36,
      "type": "SCALAR"
    },
    {
      "bufferView": 2,
      "byteOffset": 27072,
      "componentType": 5126,
      "count": 24,
      "max": [
        1.418405294418335,
        1.0,
        1.0
      ],
      "min": [
        -1.0,
        -1.0,
        -1.0
      ],
      "type": "VEC3"
    },
    {
      "bufferView": 2,
      "byteOffset": 27360,
      "componentType": 5126,
      "count": 24,
      "max": [
        0.97881019115448,
        1.0,
        1.0
      ],
      "min": [
        -0.97881019115448,
        -1.0,
        -1.0
      ],
      "type": "VEC3"
    },
    {
      "bufferView": 1,
      "byteOffset": 9024,
      "componentType": 5126,
      "count": 24,
      "max": [
        0.875,
        1.0
      ],
      "min": [
        0.125,
        0.0
      ],
      "type": "VEC2"
    },
    {
      "bufferView": 0,
      "byteOffset": 13008,
      "componentType": 5125,
      "count": 36,
      "type": "SCALAR"
    },
    {
      "bufferView": 2,
      "byteOffset": 27648,
      "componentType": 5126,
      "count": 24,
      "max": [
        1.0,
        1.0,
        1.0
      ],
      "min": [
        -1.0,
        -1.0,
        -1.0
      ],
      "type": "VEC3"
    },
    {
      "bufferView": 2,
      "byteOffset": 27936,
      "componentType": 5126,
      "count": 24,
      "max": [
        1.0,
        1.0,
        1.0
      ],
      "min": [
        -1.0,
        -1.0,
        -1.0
      ],
      "type": "VEC3"
    },
    {
      "bufferView": 1,
      "byteOffset": 9216,
      "componentType": 5126,
      "count": 24,
      "max": [
        0.875,
        1.0
      ],
      "min": [
        0.125,
        0.0
      ],
      "type": "VEC2"
    },
    {
      "bufferView": 0,
      "byteOffset": 13152,
      "componentType": 5125,
      "count": 36,
      "type": "SCALAR"
    },
    {
      "bufferView": 2,
      "byteOffset": 28224,
      "componentType": 5126,
      "count": 24,
      "max": [
        1.0,
        1.0,
        1.0
      ],
      "min": [
        -1.0,
        -1.0,
        -1.0
      ],
      "type": "VEC3"
    },
    {
      "bufferView": 2,
      "byteOffset": 28512,
      "componentType": 5126,
      "count": 24,
      "max": [
        1.0,
        1.0,
        1.0
      ],
      "min": [
        -1.0,
        -1.0,
        -1.0
      ],
      "type": "VEC3"
    },
    {
      "bufferView": 1,
      "byteOffset": 9408,
      "componentType": 5126,
      "count": 24,
      "max": [
        0.875,
        1.0
      ],
      "min": [
        0.125,
        0.0
      ],
      "type": "VEC2"
    },
    {
      "bufferView": 0,
      "byteOffset": 13296,
      "componentType": 5125,
      "count": 36,
      "type": "SCALAR"
    },
    {
      "bufferView": 2,
      "byteOffset": 28800,
      "componentType": 5126,
      "count": 138,
      "max": [
        3.42223858833313,
        1.0,
        1.0
      ],
      "min": [
        -1.0,
        -1.000000238418579,
        -1.0
      ],
      "type": "VEC3"
    },
    {
      "bufferView": 2,
      "byteOffset": 30456,
      "componentType": 5126,
      "count": 138,
      "max": [
        1.0,
        0.9987955689430237,
        1.0
      ],
      "min": [
        -1.0,
        -0.9987955689430237,
        -1.0
      ],
      "type": "VEC3"
    },
    {
      "bufferView": 1,
      "byteOffset": 9600,
      "componentType": 5126,
      "count": 138,
      "max": [
        1.0,
        1.0
      ],
      "min": [
        0.0,
        0.01000000536441803
      ],
      "type": "VEC2"
    },
    {
      "bufferView": 0,
      "byteOffset": 13440,
      "componentType": 5125,
      "count": 396,
      "type": "SCALAR"
    }
  ],
  "asset": {
    "extras": {
      "author": "sam_petux (https://sketchfab.com/sam_petux)",
      "license": "CC-BY-4.0 (http://creativecommons.org/licenses/by/4.0/)",
      "source": "https://sketchfab.com/3d-models/smart-robot-vacuum-cleaner-b9d3db38b3e6476aaf6f8716911a3f30",
      "title": "Smart robot vacuum cleaner"
    },
    "generator": "Sketchfab-13.23.0",
    "version": "2.0"
  },
  "bufferViews": [
    {
      "buffer": 0,
      "byteLength": 15024,
      "name": "floatBufferViews",
      "target": 34963
    },
    {
      "buffer": 0,
      "byteLength": 10704,
      "byteOffset": 15024,
      "byteStride": 8,
      "name": "floatBufferViews",
      "target": 34962
    },
    {
      "buffer": 0,
      "byteLength": 32112,
      "byteOffset": 25728,
      "byteStride": 12,
      "name": "floatBufferViews",
      "target": 34962
    }
  ],
  "buffers": [
    {
      "byteLength": 57840,
      "uri": "scene.bin"
    }
  ],
  "materials": [
    {
      "doubleSided": true,
      "name": "Cube__0",
      "pbrMetallicRoughness": {
        "metallicFactor": 0.0,
        "roughnessFactor": 0.6
      }
    },
    {
      "doubleSided": true,
      "name": "Material.002",
      "pbrMetallicRoughness": {
        "baseColorFactor": [
          0.8,
          0.8,
          0.8,
          1.0
        ],
        "metallicFactor": 0.0,
        "roughnessFactor": 0.8048200391238556
      }
    },
    {
      "doubleSided": true,
      "name": "Material.003",
      "pbrMetallicRoughness": {
        "baseColorFactor": [
          0.125499,
          0.125499,
          0.125499,
          1.0
        ],
        "metallicFactor": 0.0,
        "roughnessFactor": 0.9719375704891754
      }
    },
    {
      "doubleSided": true,
      "name": "Material.001",
      "pbrMetallicRoughness": {
        "baseColorFactor": [
          0.8,
          0.166914,
          0.0118049,
          1.0
        ],
        "metallicFactor": 0.0,
        "roughnessFactor": 0.9350848879593091
      }
    }
  ],
  "meshes": [
    {
      "name": "Cylinder_Material.002_0",
      "primitives": [
        {
          "attributes": {
            "NORMAL": 1,
            "POSITION": 0,
            "TEXCOORD_0": 2
          },
          "indices": 3,
          "material": 1,
          "mode": 4
        }
      ]
    },
    {
      "name": "Cylinder_Material.003_0",
      "primitives": [
        {
          "attributes": {
            "NORMAL": 5,
            "POSITION": 4,
            "TEXCOORD_0": 6
          },
          "indices": 7,
          "material": 2,
          "mode": 4
        }
      ]
    },
    {
      "name": "Cylinder.001_Material.001_0",
      "primitives": [
        {
          "attributes": {
            "NORMAL": 9,
            "POSITION": 8,
            "TEXCOORD_0": 10
          },
          "indices": 11,
          "material": 3,
          "mode": 4
        }
      ]
    },
    {
      "name": "Cube__0",
      "primitives": [
        {
          "attributes": {
            "NORMAL": 13,
            "POSITION": 12,
            "TEXCOORD_0": 14
          },
          "indices": 15,
          "material": 0,
          "mode": 4
        }
      ]
    },
    {
      "name": "Cube.001__0",
      "primitives": [
        {
          "attributes": {
            "NORMAL": 17,
            "POSITION": 16,
            "TEXCOORD_0": 18
          },
          "indices": 19,
          "material": 0,
          "mode": 4
        }
      ]
    },
    {
      "name": "Cube.002__0",
      "primitives": [
        {
          "attributes": {
            "NORMAL": 21,
            "POSITION": 20,
            "TEXCOORD_0": 22
          },
          "indices": 23,
          "material": 0,
          "mode": 4
        }
      ]
    },
    {
      "name": "Cube.003_Material.003_0",
      "primitives": [
        {
          "attributes": {
            "NORMAL": 25,
            "POSITION": 24,
            "TEXCOORD_0": 26
          },
          "indices": 27,
          "material": 2,
          "mode": 4
        }
      ]
    },
    {
      "name": "Cube.004_Material.003_0",
      "primitives": [
        {
          "attributes": {
            "NORMAL": 29,
            "POSITION": 28,
            "TEXCOORD_0": 30
          },
          "indices": 31,
          "material": 2,
          "mode": 4
        }
      ]
    },
    {
      "name": "Cylinder.002_Material.003_0",
      "primitives": [
        {
          "attributes": {
            "NORMAL": 33,
            "POSITION": 32,
            "TEXCOORD_0": 34
          },
          "indices": 35,
          "material": 2,
          "mode": 4
        }
      ]
    }
  ],
  "nodes": [
    {
      "children": [
        1
      ],
      "matrix": [
        1.0,
        0.0,
        0.0,
        0.0,
        0.0,
        2.220446049250313e-16,
        -1.0,
        0.0,
        0.0,
        1.0,
        2.220446049250313e-16,
        0.0,
        0.0,
        0.0,
        0.0,
        1.0
      ],
      "name": "Sketchfab_model"
    },
    {
      "children": [
        2
      ],
      "matrix": [
        0.009999999776482582,
        0.0,
        0.0,
        0.0,
        0.0,
        0.0,
        0.009999999776482582,
        0.0,
        0.0,
        -0.009999999776482582,
        0.0,
        0.0,
        0.0,
        0.0,
        0.0,
        1.0
      ],
      "name": "VacuumCleaner.fbx"
    },
    {
      "children": [
        3,
        6,
        8,
        10,
        12,
        14,
        16,
        18
      ],
      "name": "RootNode"
    },
    {
      "children": [
        4,
        5
      ],
      "matrix": [
        100.0,
        0.0,
        0.0,
        0.0,
        0.0,
        -1.629206793918314e-05,
        -99.99999999999868,
        0.0,
        0.0,
        20.549667358398167,
        -3.347965767306415e-06,
        0.0,
        0.0,
        87.91990661621094,
        0.0,
        1.0
      ],
      "name": "Cylinder"
    },
    {
      "mesh": 0,
      "name": "Cylinder_Material.002_0"
    },
    {
      "mesh": 1,
      "name": "Cylinder_Material.003_0"
    },
    {
      "children": [
        7
      ],
      "matrix": [
        87.3505859375,
        0.0,
        0.0,
        0.0,
        0.0,
        -1.4231216806212055e-05,
        -87.35058593749885,
        0.0,
        0.0,
        19.34747695922826,
        -3.1521040907153143e-06,
        0.0,
        52.75924301147461,
        119.85030364990234,
        -9.592622518539429e-06,
        1.0
      ],
      "name": "Cylinder.001"
    },
    {
      "mesh": 2,
      "name": "Cylinder.001_Material.001_0"
    },
    {
      "children": [
        9
      ],
      "matrix": [
        2.9139304161071777,
        0.0,
        0.0,
        0.0,
        0.0,
        -3.953835589324503e-07,
        -2.426846981048552,
        0.0,
        0.0,
        4.9796829223632155,
        -8.112933248673263e-07,
        0.0,
        29.892105102539063,
        119.87065124511719,
        0.11320635676383972,
        1.0
      ],
      "name": "Cube"
    },
    {
      "mesh": 3,
      "name": "Cube__0"
    },
    {
      "children": [
        11
      ],
      "matrix": [
        -1.4569659567882673,
        1.0635913930338947e-07,
        2.5235373329266575,
        0.0,
        2.101710983138664,
        8.977042642976298e-07,
        1.213424233312079,
        0.0,
        -1.5043493915795288e-06,
        4.9796829223629375,
        -1.0784150504884804e-06,
        0.0,
        62.99031448364258,
        119.87065124511719,
        -19.71465492248535,
        1.0
      ],
      "name": "Cube.001"
    },
    {
      "mesh": 4,
      "name": "Cube.001__0"
    },
    {
      "children": [
        13
      ],
      "matrix": [
        -1.8210789486493424,
        -1.1503588658553475e-07,
        -2.2747883270099543,
        0.0,
        -1.8945418714918347,
        6.354537792955775e-08,
        1.5166731245027187,
        0.0,
        -2.1068577613278048e-08,
        4.979682922363276,
        -2.349557941630723e-07,
        0.0,
        65.92504119873047,
        119.87065124511719,
        17.684612274169922,
        1.0
      ],
      "name": "Cube.002"
    },
    {
      "mesh": 5,
      "name": "Cube.002__0"
    },
    {
      "children": [
        15
      ],
      "matrix": [
        -0.8529801964759827,
        -0.0,
        -0.0,
        -0.0,
        -0.0,
        0.2779171370103468,
        21.80080469014469,
        -0.0,
        -0.0,
        -0.8529149479230091,
        0.010872978489057713,
        -0.0,
        52.05813217163086,
        114.15299224853516,
        -50.87199783325195,
        1.0
      ],
      "name": "Cube.003"
    },
    {
      "mesh": 6,
      "name": "Cube.003_Material.003_0"
    },
    {
      "children": [
        17
      ],
      "matrix": [
        0.8529801964759696,
        7.456989989417346e-08,
        1.2879642930745557e-07,
        -0.0,
        3.2675343459640095e-06,
        0.2779100334067885,
        -21.800804780700183,
        -0.0,
        7.620592814285088e-08,
        -0.8529149514658264,
        -0.010872700574091327,
        -0.0,
        52.05813217163086,
        114.15299224853516,
        50.71823501586914,
        1.0
      ],
      "name": "Cube.004"
    },
    {
      "mesh": 7,
      "name": "Cube.004_Material.003_0"
    },
    {
      "children": [
        19
      ],
      "matrix": [
        5.356540203094482,
        0.0,
        0.0,
        0.0,
        -0.0,
        -8.726911690778117e-07,
        -5.356540203094411,
        0.0,
        0.0,
        5.356540203094411,
        -8.726911690778117e-07,
        0.0,
        -61.204612731933594,
        109.90373229980469,
        0.0,
        1.0
      ],
      "name": "Cylinder.002"
    },
    {
      "mesh": 8,
      "name": "Cylinder.002_Material.003_0"
    }
  ],
  "scene": 0,
  "scenes": [
    {
      "name": "Sketchfab_Scene",
      "nodes": [
        0
      ]
    }
  ]
}
